<svg width="76" height="105" viewBox="0 0 76 105" fill="none" xmlns="http://www.w3.org/2000/svg">
<path d="M66.8988 4.78833H9.2085V71.5069H66.8988V4.78833Z" fill="white"/>
<path d="M18.4275 11.5178L9.2085 15.0172V4.78833H16.1919L18.4275 11.5178Z" fill="#FCD938"/>
<path d="M32.8594 5.19985L20.7084 10.9172L18.793 4.78833H32.7854L32.8594 5.19985Z" fill="#31A9DF"/>
<path d="M49.3295 14.4893C48.9639 14.397 48.5908 14.2986 48.2404 14.1867C47.9836 14.1088 47.7229 14.0446 47.4594 13.9945C46.9866 13.8962 46.541 13.8039 46.2419 13.5709C45.7777 13.2019 45.2541 12.9149 44.6935 12.7222L35.76 5.5509L35.3491 4.79443H47.1104L49.3295 14.4893Z" fill="#F59324"/>
<path d="M56.5122 14.2819L53.9019 16.7692C53.5387 16.4253 53.157 16.1015 52.7584 15.7994C52.5056 15.6089 52.2332 15.4461 51.9458 15.3138L49.3022 4.78833H51.4578L56.5122 14.2819Z" fill="#3FB34B"/>
<path d="M65.9186 4.78833L61.0772 13.9309L58.8869 13.6753L54.3809 4.78833H65.9186Z" fill="#EA232B"/>
<path d="M66.9004 8.92017V15.4953L63.6904 13.701L66.9004 8.92017Z" fill="#31A9DF"/>
<path d="M66.9001 19.01V32.2526L61.5073 22.7711L66.3487 18.78L66.9001 19.01Z" fill="#3FB34B"/>
<path d="M66.9002 40.8778V64.2298L59.3262 54.6303C59.3262 54.6303 64.3655 45.583 66.9002 40.8778Z" fill="#31A9DF"/>
<path d="M66.9005 68.5643V71.5069H53.9941L58.8808 57.7302L66.9005 68.5643Z" fill="#F59324"/>
<path d="M29.9457 67.8365C29.1753 69.0469 28.4125 70.2572 27.6602 71.457L27.6285 71.5084H26.8219L22.7705 59.5911L25.0998 55.0735L29.9457 67.8365Z" fill="#EA232B"/>
<path d="M24.6876 71.5069H16.2178L20.7993 62.623L24.6876 71.5069Z" fill="#F59324"/>
<path d="M15.118 60.4777L13.1769 71.5069H9.86572L15.118 60.4777Z" fill="#3FB34B"/>
<path d="M17.1239 50.6966L9.2085 66.3584V46.3681L13.0469 40.8036L17.1239 50.6966Z" fill="#31A9DF"/>
<path d="M17.2221 30.9046L9.2085 42.2606V28.8016L17.2221 30.9046Z" fill="#FCD938"/>
<path d="M21.0272 18.1097L9.2085 25.3536V17.6786L19.1284 13.5543L21.0272 18.1097Z" fill="#EA232B"/>
<path d="M33.5723 14.63C33.4583 14.7018 33.3403 14.767 33.2188 14.8252C32.9258 14.9719 32.6418 15.1361 32.3684 15.3169C31.8231 15.6618 31.311 15.9871 30.675 15.9871C30.4351 15.986 30.197 15.9441 29.9711 15.863C29.9024 15.84 29.8305 15.8282 29.7581 15.8282C29.2067 15.8282 28.5179 16.4561 27.74 17.2126L27.6599 17.2897C27.3382 17.6029 26.9877 17.9115 26.6463 18.2126C25.808 18.9464 24.9515 19.6998 24.3548 20.6575L21.2324 12.7222L29.4303 9.35291L33.5723 14.63Z" fill="#3FB34B"/>
<path d="M21.4031 20.9586L11.314 26.8515L18.7898 28.3553L22.6221 24.1221L21.4031 20.9586Z" fill="#31A9DF"/>
<path d="M41.1932 12.6708C40.8533 12.7404 40.527 12.8221 40.2219 12.9098C39.7687 13.0339 39.3155 13.2034 38.8805 13.3637C38.0059 13.689 37.1811 13.9992 36.2732 13.9992C36.1678 13.9997 36.0624 13.9941 35.9575 13.9825L31.9409 8.28786L36.1554 7.96863L41.1932 12.6708Z" fill="#EA232B"/>
<path d="M58.8899 22.7226L58.4986 23.5472C58.5147 22.4808 58.1303 21.4474 57.4216 20.6514C57.0983 20.2868 56.7796 19.9177 56.4609 19.544C56.2539 19.3004 56.047 19.0583 55.834 18.8162L57.3702 17.2352L58.8899 22.7226Z" fill="#1772B8"/>
<path d="M59.5044 16.4031L60.5542 20.0326L64.7113 17.1293L59.5044 16.4031Z" fill="#FCD938"/>
<path d="M60.0831 25.7742L58.6299 29.4264L61.4773 33.7291L63.6012 32.2162L60.0831 25.7742Z" fill="#EA232B"/>
<path d="M58.9788 34.4584L56.7266 34.4705C56.7447 34.2496 56.7507 34.0332 56.7477 33.8169C56.7614 32.898 56.8692 31.9829 57.0695 31.0861L58.9788 34.4584Z" fill="#FCD938"/>
<path d="M64.8578 34.0182L66.953 36.4979L61.6191 45.7918L62.1811 36.5569L64.8578 34.0182Z" fill="#EF582F"/>
<path d="M59.8655 37.162L58.1253 49.4273L54.9758 37.4237L54.938 37.2739L55.1328 37.2709L59.8655 37.162Z" fill="#1772B8"/>
<path d="M56.1843 51.6331L48.9199 45.2093C49.2346 44.8941 49.6176 44.6559 50.0393 44.5133C51.7945 44.0503 52.787 42.837 53.6646 41.5828L56.1843 51.6331Z" fill="#EF582F"/>
<path d="M22.1149 44.1653L18.2901 48.0097L14.5454 38.3557L18.4336 33.4205L20.9125 40.6599C20.6451 41.2862 20.6013 41.7553 20.7614 42.1728C20.9125 42.5601 21.2146 42.8627 21.766 43.135L22.1149 44.1653Z" fill="#3FB34B"/>
<path d="M22.376 46.7238L19.1811 51.143L16.4409 65.5915L24.2279 51.5727L22.376 46.7238Z" fill="#FCD938"/>
<path d="M55.7159 54.9555L48.589 55.4472C48.438 54.6136 48.2869 53.783 48.1449 52.9479C47.8307 51.1324 47.5875 49.3048 47.3896 47.7631C47.3792 47.5763 47.4112 47.3895 47.4833 47.2169L55.7159 54.9555Z" fill="#EA232B"/>
<path d="M34.8608 56.5744L33.9907 61.0345C33.6273 61.9647 33.1665 62.8537 32.6161 63.6866C32.0874 64.4935 31.5617 65.3055 31.039 66.1225L26.7233 52.8556L26.6689 52.6892L28.6327 52.5969L34.2898 52.3215C34.4167 52.7981 34.5315 53.2671 34.6206 53.7391C34.7958 54.6737 34.8763 55.6236 34.8608 56.5744Z" fill="#1772B8"/>
<path d="M49.0498 57.4685L52.2039 68.9471L57.2114 57.4519L49.0498 57.4685Z" fill="#FCD938"/>
<path d="M23.3804 25.8679C23.3699 26.0586 23.3578 26.2507 23.3412 26.4383C23.323 26.7076 23.2838 26.9845 23.246 27.2523C23.2082 27.5201 23.1629 27.8363 23.1403 28.1373C23.1025 28.6548 23.0391 29.1964 22.9756 29.7078C22.8246 30.968 22.6569 32.2797 22.8729 33.5188C22.9924 34.1875 23.0309 34.8682 22.9877 35.5461C22.1103 35.0584 21.3854 34.3361 20.894 33.4598C20.4026 32.5836 20.1639 31.5878 20.2047 30.5835C20.2454 29.5793 20.5639 28.6062 21.1247 27.7727C21.6855 26.9393 22.4664 26.2782 23.3804 25.8634V25.8679Z" fill="#FCD938"/>
<path d="M26.6709 52.6892L28.6346 52.5969C28.1571 52.7756 27.6545 52.8777 27.1452 52.8995C27.0064 52.9005 26.8677 52.8879 26.7313 52.8617L26.6709 52.6892Z" fill="black"/>
<path d="M55.1332 37.271C55.0788 37.3209 55.0244 37.3724 54.9821 37.4223L54.9443 37.271H55.1332Z" fill="black"/>
<path d="M57.66 20.4382C57.3382 20.0766 57.0165 19.6999 56.7038 19.3368C55.5557 17.9993 54.3699 16.6135 52.9485 15.5408C52.015 14.8313 50.8337 14.5347 49.6917 14.2473C49.2159 14.1293 48.7672 14.0173 48.3322 13.8766C48.0646 13.7933 47.7922 13.7266 47.5165 13.6769C47.0829 13.5831 46.6721 13.4999 46.4319 13.3123C45.4554 12.5324 44.2396 12.1149 42.9908 12.1307C41.9772 12.1307 40.9757 12.3667 40.1313 12.5967C39.66 12.7283 39.2038 12.8992 38.7642 13.0626C37.9153 13.3788 37.1192 13.6769 36.2687 13.6769C35.996 13.6766 35.7242 13.6441 35.4591 13.5801C35.3657 13.5603 35.2705 13.5496 35.1751 13.5483C34.6464 13.5483 34.1585 13.8675 33.6826 14.1746C33.4889 14.3071 33.2871 14.4274 33.0784 14.5347C32.7726 14.6855 32.4764 14.8553 32.1917 15.0431C31.663 15.3774 31.2098 15.6649 30.6675 15.6649C30.4617 15.6627 30.2576 15.627 30.0633 15.559C29.9607 15.5237 29.853 15.5058 29.7446 15.506C29.0739 15.506 28.3639 16.1475 27.5059 16.9842L27.4304 17.0568C27.1116 17.3669 26.7793 17.6619 26.4258 17.9645C25.0663 19.1628 23.6554 20.3973 23.3125 22.4852C23.1862 23.3463 23.1116 24.2143 23.089 25.0844C23.0693 25.5216 23.0467 25.9709 23.015 26.4082C22.9938 26.6669 22.9576 26.9256 22.9198 27.2009C22.882 27.4763 22.8367 27.8061 22.8141 28.1087C22.7763 28.617 22.7098 29.1496 22.6464 29.661C22.4863 30.947 22.3231 32.2753 22.5467 33.5673C22.882 35.4857 22.592 37.0894 21.6131 38.7612C21.521 38.9125 21.4243 39.0744 21.3261 39.2272C21.1993 39.4284 21.0678 39.6387 20.944 39.8566C20.5255 40.6009 20.1403 41.4724 20.447 42.2773C20.7536 43.0821 21.6131 43.471 22.4107 43.7463C22.4863 43.772 22.5618 43.7978 22.6434 43.8189C22.5346 44.0368 22.4394 44.2214 22.3412 44.3938C22.295 44.4538 22.2445 44.5105 22.1902 44.5633C21.9953 44.7645 21.6675 45.1064 21.8397 45.5588C22.2812 46.7916 22.7854 48.001 23.3503 49.1823C23.5266 49.4959 23.7579 49.7753 24.0331 50.0068C24.1971 50.1386 24.3354 50.2997 24.4409 50.4819C24.8745 51.7996 25.4742 53.2051 27.1177 53.2051C27.6313 53.2051 28.24 53.0675 29.0406 52.7739C30.1645 52.3564 31.2778 51.8662 32.45 51.3473L33.524 50.8722C33.5724 51.0447 33.6237 51.2126 33.6675 51.379C33.9077 52.2096 34.1328 52.9979 34.2793 53.7891C34.9304 57.2689 34.2793 60.5413 32.3322 63.5066C30.6494 66.0786 28.9863 68.7126 27.379 71.2665L27.228 71.501H27.9832C29.5965 68.9396 31.2053 66.3827 32.8639 63.8546C34.9153 60.7279 35.596 57.3344 34.9062 53.6741C34.6796 52.4638 34.2884 51.2867 33.944 49.9962C32.0255 50.8177 30.447 51.5712 28.808 52.1733C28.1131 52.432 27.5618 52.5667 27.1086 52.5667C26.0769 52.5667 25.5573 51.8647 25.0376 50.2776C24.8654 49.7511 24.1736 49.4152 23.9122 48.8948C23.3412 47.7435 22.873 46.5361 22.4198 45.3334C22.373 45.2017 22.7431 44.94 22.873 44.7161C23.0799 44.359 23.2521 43.9823 23.5452 43.4014C23.092 43.2773 22.8412 43.2228 22.6026 43.1396C20.8141 42.5269 20.5497 41.8249 21.4772 40.1682C21.6872 39.7976 21.9304 39.4496 22.1434 39.082C23.1722 37.3989 23.5328 35.3905 23.1539 33.4539C22.8518 31.7564 23.2974 29.9242 23.4273 28.1586C23.4696 27.5898 23.5784 27.0285 23.6283 26.4596C23.731 25.1706 23.7083 23.8619 23.9183 22.5911C24.308 20.2218 26.3065 19.019 27.8458 17.5152C28.3911 16.9857 29.2295 16.143 29.7174 16.143C29.7564 16.1427 29.7952 16.1488 29.8322 16.1611C30.0908 16.2527 30.363 16.3003 30.6373 16.3018C31.7023 16.3018 32.4289 15.5257 33.3186 15.1111C33.9304 14.8237 34.6086 14.1852 35.1418 14.1852C35.1882 14.1854 35.2343 14.191 35.2793 14.2019C35.5928 14.2752 35.9136 14.3127 36.2355 14.3138C37.6781 14.3138 38.9289 13.5786 40.2672 13.2124C41.1841 12.9628 42.0799 12.7676 42.9576 12.7676C44.0648 12.7508 45.1433 13.121 46.0074 13.8146C46.5497 14.2367 47.4002 14.2563 48.1011 14.4818C49.5996 14.9704 51.3397 15.1459 52.5286 16.0461C54.2778 17.3745 55.6675 19.1915 57.1434 20.8572C58.1282 21.9677 58.314 23.3248 58.0104 24.7591C57.6736 26.3673 57.3095 27.9725 57.0074 29.5914C56.7461 30.9923 56.373 32.41 56.3911 33.8155C56.4047 34.926 56.2038 35.7596 55.4198 36.5191C54.5724 37.3391 53.456 38.0955 54.3141 39.5767C54.4092 39.7401 54.2823 40.1198 54.1418 40.315C52.9938 41.8854 52.0542 43.6434 49.9213 44.2002C48.598 44.5512 46.9092 46.7949 47.0361 47.7979C47.2597 49.5333 47.4893 51.2777 47.7914 52.9979C48.6766 58.1146 49.7415 63.2101 50.4591 68.3526C50.6841 69.9835 50.7491 70.9245 50.5693 71.504H51.2264C51.3866 70.7853 51.3005 69.7732 51.089 68.2633C50.6147 64.8562 49.9772 61.4188 49.3624 58.0919C49.0467 56.3883 48.7219 54.6227 48.4183 52.8859C48.1056 51.0704 47.8639 49.2549 47.663 47.7177C47.5844 47.0823 49.0059 45.1004 50.0799 44.819C52.1358 44.2758 53.1736 42.7917 54.1781 41.3559C54.3332 41.132 54.4903 40.9106 54.6494 40.6917C54.8125 40.4708 55.166 39.784 54.8609 39.2575C54.3911 38.4496 54.663 38.0895 55.5588 37.2559L55.8609 36.979C56.9092 35.9638 57.0376 34.8049 57.027 33.8018C57.015 32.7715 57.2249 31.7306 57.4485 30.6247C57.5119 30.3221 57.5724 30.012 57.6298 29.7048C57.8473 28.5596 58.095 27.3946 58.3382 26.2705C58.4364 25.8075 58.5346 25.3476 58.6403 24.8847C59.0467 23.1191 58.7053 21.6182 57.66 20.4382Z" fill="#414042"/>
<path d="M33.6013 20.7073L32.0439 18.8918C33.2524 18.1702 34.3355 17.4712 35.4684 16.8554C36.3038 16.4016 37.0923 16.2503 37.8672 17.1731C38.4319 17.8091 39.1263 18.3162 39.9035 18.6604C44.8687 20.9297 47.2403 25.0025 48.0742 30.1904C48.2146 31.0618 48.3959 31.9257 48.5591 32.7941L49.1285 32.7502C49.0429 31.4007 48.9588 30.0522 48.8763 28.7047L49.263 28.6472C49.414 29.8197 49.4518 31.0164 49.7297 32.1557C49.9952 33.3147 50.4117 34.4338 50.9684 35.4841C51.4911 36.4297 52.3098 37.2119 53.1164 38.2074C53.9503 37.0636 54.9518 36.5719 54.8294 34.8502C54.6708 32.5929 55.334 30.2554 55.8143 27.9891C55.9473 27.3612 56.6859 26.8604 57.4246 26.3248C57.1648 27.6502 56.8717 28.9694 56.6527 30.3008C56.3627 32.0634 56.2116 33.8547 55.8355 35.5961C55.6844 36.3117 55.1693 36.9985 54.6799 37.5795C54.0938 38.2755 53.343 38.8171 54.0379 39.8746C54.1527 40.0486 53.976 40.4601 53.8566 40.7279C53.7524 40.9624 53.5319 41.144 53.3717 41.3558C50.0847 45.71 49.5198 45.0156 46.831 40.8202C47.479 41.4027 48.1905 41.9352 48.7615 42.5812C49.5923 43.5056 50.5137 43.3377 51.2705 42.7098C51.6935 42.3543 51.7524 41.5676 51.9986 40.9185L53.5288 40.4223C53.4019 39.9926 53.4019 39.8671 53.34 39.802C50.5092 36.8715 47.7766 33.838 44.8068 31.0573C42.4155 28.8151 39.6708 26.9542 37.2131 24.7786C36.0047 23.7196 35.0983 22.3201 34.0606 21.075L42.4503 28.8711C42.6376 28.1736 42.7282 27.8363 42.8219 27.4853L44.2207 28.5186L43.1029 24.1523C43.5904 24.7341 43.9779 25.3932 44.2494 26.1024C44.7388 27.4429 45.1029 28.8257 45.6089 30.1601C45.7297 30.4627 46.2448 30.6261 46.5787 30.853L46.8476 30.6442L47.7373 33.5052L48.1769 33.3675C47.4835 30.9922 46.7841 28.6184 46.0983 26.2401C45.2116 23.1613 43.0772 21.1915 40.3581 19.7497C39.5168 19.3049 38.5032 19.0068 37.8944 18.3426C36.9412 17.3048 36.0817 17.5287 35.0772 18.0401C34.4291 18.3684 33.7645 18.6664 33.0455 19.0068L33.6013 20.7073Z" fill="#EA232B"/>
<path d="M41.0214 54.6741C42.3975 52.5984 41.3763 50.7708 41.3763 48.9749C41.3763 48.1625 41.4489 47.3425 41.3552 46.5421C41.3038 46.1034 40.9761 45.6949 40.751 45.2244C40.902 44.825 41.0863 44.3499 41.3446 43.6797L43.0954 45.2713C42.8628 46.1654 42.618 46.6481 42.6347 47.1231C42.7132 49.4591 42.8718 51.7905 42.967 54.1265C42.9776 54.3836 42.7767 54.8678 42.6528 54.8829C42.18 54.9011 41.7011 54.7815 41.0214 54.6741Z" fill="#FCD938"/>
<path d="M33.4893 66.354L49.3639 62.5717C49.2309 62.8394 49.1358 63.3811 48.8986 63.4507C43.9968 64.9318 39.0406 66.1512 33.4893 66.354Z" fill="#F59324"/>
<path d="M52.5017 32.3509C52.0122 31.1511 51.5017 29.9015 50.9382 28.5247L51.9473 28.3462L48.0757 21.2566L48.4533 20.9722C49.0576 21.7528 49.76 22.4851 50.2388 23.3293C50.9216 24.5396 51.3687 25.8892 52.0515 27.1116C52.9715 28.7879 53.1844 30.664 52.5017 32.3509Z" fill="#EF582F"/>
<path d="M31.8594 21.3217L41.3563 30.2948C39.4364 29.9302 37.5542 28.3129 31.8594 21.3217Z" fill="#31A9DF"/>
<path d="M48.9156 58.1902C48.6271 58.6698 48.5017 59.163 48.269 59.2205C44.1588 60.2508 40.0349 61.2281 35.9141 62.2161L35.8174 61.7849L48.9156 58.1902Z" fill="#31A9DF"/>
<path d="M31.5938 71.7552H29.0439L31.8068 67.4751L32.1301 67.6173C31.9578 68.988 31.7766 70.3648 31.5938 71.7552Z" fill="#F59324"/>
<path d="M36.8672 67.0272C36.9971 67.8608 37.1406 68.6914 37.2524 69.5296C37.5273 71.5917 37.4971 71.6174 35.2056 71.3678C35.6587 69.9048 36.1119 68.469 36.5575 67.0348L36.8672 67.0272Z" fill="#FCD938"/>
<path d="M50.0922 68.5492L47.8701 69.0636C48.1556 67.3994 48.3988 65.9803 48.6405 64.5642H48.9426C49.3082 65.8472 49.6813 67.1286 50.0922 68.5492Z" fill="#EF582F"/>
<path d="M44.9261 65.7049L45.9307 69.5296L43.6558 70.0319C44.0259 68.4055 44.3446 67.0363 44.6467 65.6641L44.9261 65.7049Z" fill="#EA232B"/>
<path d="M53.6721 23.9072L49.2144 17.5318L49.6388 17.2549C50.8926 19.547 53.7098 20.8647 53.6721 23.9072Z" fill="#1772B8"/>
<path d="M41.0363 66.7004C41.2538 67.8895 41.4698 69.0772 41.7115 70.404L39.5801 71.0092L40.7281 66.6217L41.0363 66.7004Z" fill="#3FB34B"/>
<path d="M36.8521 19.8586C39.4623 19.9645 41.1934 21.5849 41.8369 24.2189L36.8521 19.8586Z" fill="#FCD938"/>
<path d="M67.2189 71.8276H8.88965V4.46912H67.2189V71.8276ZM9.52711 71.1892H66.5815V5.10757H9.52711V71.1892Z" fill="#414042"/>
<path d="M71.0438 0C70.9182 0 70.7939 0.0247711 70.6779 0.0728992C70.5619 0.121027 70.4564 0.191568 70.3677 0.280497C70.2789 0.369426 70.2084 0.475001 70.1604 0.591192C70.1123 0.707384 70.0876 0.831918 70.0876 0.957683V73.4269C70.0872 73.6807 69.9863 73.9241 69.8071 74.1036C69.6279 74.2831 69.3849 74.3842 69.1314 74.3846H6.97733C6.72385 74.3842 6.48087 74.2831 6.30164 74.1036C6.1224 73.9241 6.02153 73.6807 6.02113 73.4269V2.87305C6.02153 2.61918 6.1224 2.37582 6.30164 2.19631C6.48087 2.01679 6.72385 1.91577 6.97733 1.91537H48.4139C48.6675 1.91537 48.9107 1.81447 49.09 1.63487C49.2693 1.45527 49.3701 1.21168 49.3701 0.957683C49.3701 0.70369 49.2693 0.460098 49.09 0.280497C48.9107 0.100897 48.6675 0 48.4139 0H5.06947C4.816 0.000400112 4.57302 0.101427 4.39378 0.28094C4.21455 0.460454 4.11368 0.703813 4.11328 0.957683V75.3392C4.11368 75.5931 4.21455 75.8364 4.39378 76.016C4.57302 76.1955 4.816 76.2965 5.06947 76.2969H71.0438C71.2973 76.2965 71.5402 76.1955 71.7195 76.016C71.8987 75.8364 71.9996 75.5931 72 75.3392V0.957683C71.9996 0.703813 71.8987 0.460454 71.7195 0.28094C71.5402 0.101427 71.2973 0.000400112 71.0438 0Z" fill="white"/>
<path d="M52.5573 1.91537H59.2506C59.5042 1.91537 59.7474 1.81447 59.9268 1.63487C60.1061 1.45527 60.2068 1.21168 60.2068 0.957683C60.2068 0.70369 60.1061 0.460098 59.9268 0.280497C59.7474 0.100897 59.5042 0 59.2506 0H52.5573C52.3037 0 52.0605 0.100897 51.8811 0.280497C51.7018 0.460098 51.6011 0.70369 51.6011 0.957683C51.6011 1.21168 51.7018 1.45527 51.8811 1.63487C52.0605 1.81447 52.3037 1.91537 52.5573 1.91537Z" fill="white"/>
<path d="M13.04 94.88C12.96 96.0267 12.64 96.9333 12.08 97.6C11.52 98.2533 10.8133 98.72 9.96 99C9.12 99.2667 8.21333 99.4 7.24 99.4C6.54667 99.4 5.79333 99.22 4.98 98.86C4.18 98.5 3.4 97.96 2.64 97.24C1.88 96.52 1.21333 95.6133 0.64 94.52L0.78 94.38C1.31333 94.7933 1.88 95.1667 2.48 95.5C3.09333 95.8333 3.7 96.12 4.3 96.36C4.9 96.5867 5.45333 96.76 5.96 96.88C6.48 97 6.9 97.06 7.22 97.06C7.84667 97.06 8.37333 96.9133 8.8 96.62C9.24 96.3267 9.49333 95.84 9.56 95.16V95.1C9.56 94.8067 9.36667 94.5 8.98 94.18C8.59333 93.8467 8.08667 93.4933 7.46 93.12C6.84667 92.7467 6.19333 92.3533 5.5 91.94C4.82 91.5267 4.17333 91.1 3.56 90.66C2.94667 90.2067 2.44 89.74 2.04 89.26C1.65333 88.78 1.46 88.28 1.46 87.76C1.46 87.6933 1.46 87.64 1.46 87.6C1.46 87.5467 1.46667 87.4933 1.48 87.44C1.64 86.5467 1.99333 85.7667 2.54 85.1C3.1 84.4333 3.76667 83.9133 4.54 83.54C5.32667 83.1667 6.14 82.98 6.98 82.98C7.83333 82.98 8.74667 83.1133 9.72 83.38C10.7067 83.6333 11.7133 84 12.74 84.48L11.62 87.74C10.58 86.7267 9.68667 85.98 8.94 85.5C8.19333 85.02 7.48667 84.78 6.82 84.78C6.1 84.78 5.54667 84.96 5.16 85.32C4.78667 85.6667 4.57333 86.2533 4.52 87.08V87.14C4.52 87.4467 4.67333 87.7533 4.98 88.06C5.28667 88.3667 5.69333 88.68 6.2 89C6.70667 89.3067 7.26 89.6267 7.86 89.96C8.47333 90.28 9.08 90.62 9.68 90.98C10.2933 91.3267 10.8533 91.7 11.36 92.1C11.8667 92.4867 12.2733 92.9 12.58 93.34C12.8867 93.7667 13.04 94.2267 13.04 94.72V94.88ZM26.9564 99.22L24.5964 94.18L16.6764 95.56L14.5964 99.22H14.2964L19.7564 83.42L22.9164 82.94L29.3164 98.96L26.9564 99.22ZM21.3364 87.22L18.2364 92.76L24.3564 93.7L21.3364 87.22ZM42.7755 99.26L34.4555 87.32L32.6755 99.26H32.3555L31.0755 83.4H34.3555L41.1955 91.68L43.3155 83.2H43.6955L42.9355 99.26H42.7755ZM58.1283 99.22L55.7683 94.18L47.8483 95.56L45.7683 99.22H45.4683L50.9283 83.42L54.0883 82.94L60.4883 98.96L58.1283 99.22ZM52.5083 87.22L49.4083 92.76L55.5283 93.7L52.5083 87.22ZM73.1673 99.22L70.8073 94.18L62.8873 95.56L60.8073 99.22H60.5073L65.9673 83.42L69.1273 82.94L75.5273 98.96L73.1673 99.22ZM67.5473 87.22L64.4473 92.76L70.5673 93.7L67.5473 87.22Z" fill="white"/>
</svg>
